<svg xmlns="http://www.w3.org/2000/svg" width="140" height="27" fill="none"><path fill="#000" d="M47.427 14.326h5.277c.742 0 1.343.608 1.343 1.35 0 .748-.601 1.35-1.343 1.35H46.34a.4.4 0 0 0-.269.102l-1.919 1.656c-.294.256-.115.736.269.736h7.963s.006 0 .006-.007c0-.006.007-.006.007-.006.102.006.198.013.3.013 2.11 0 3.825-1.72 3.825-3.844a3.835 3.835 0 0 0-3.511-3.831s-.007 0-.007-.007q.002-.007-.006-.006h-5.68a1.35 1.35 0 0 1-1.343-1.35c0-.748.601-1.349 1.343-1.349h6.351a.42.42 0 0 0 .282-.109l1.784-1.656a.42.42 0 0 0-.281-.73h-8.129c-2.11 0-3.825 1.721-3.825 3.845s1.714 3.843 3.825 3.843zM78.14 6.632a.416.416 0 0 0-.416.423v12.05c0 .23.185.421.415.421h9.658a.44.44 0 0 0 .307-.134l1.209-1.298a.422.422 0 0 0-.307-.71h-8.43a.416.416 0 0 1-.416-.422V7.048a.42.42 0 0 0-.415-.422h-1.606z"/><path fill="#000" fill-rule="evenodd" d="M62.675 6.633q0 .009 0 0a2.4 2.4 0 0 0-2.283 2.283v8.206a2.383 2.383 0 0 0 2.283 2.386h8.762a2.396 2.396 0 0 0 2.283-2.386V8.923a2.385 2.385 0 0 0-2.276-2.284h-8.77zm1.637 2.29q-.009 0 0 0a1.496 1.496 0 0 0-1.426 1.439v5.161a1.5 1.5 0 0 0 1.426 1.503h5.494a1.5 1.5 0 0 0 1.427-1.503v-5.161a1.5 1.5 0 0 0-1.427-1.44zm39.04 10.182c0 .23.186.422.416.422h1.637a.416.416 0 0 0 .416-.422V9.03c0-1.285-1.004-2.334-2.258-2.385H95.05c-1.304 0-2.36 1.068-2.36 2.392V19.11c0 .231.186.423.416.423h1.638c.23 0 .415-.185.415-.422v-4.15a.42.42 0 0 1 .416-.423h7.381c.23 0 .415.185.415.422v4.145zm-8.206-6.863V10.17a1.45 1.45 0 0 1 1.44-1.459h5.334a1.45 1.45 0 0 1 1.439 1.459v2.072a.42.42 0 0 1-.416.422h-7.38a.416.416 0 0 1-.417-.422m42.775 7.284a.417.417 0 0 1-.416-.422v-4.15a.42.42 0 0 0-.415-.423h-7.464a.417.417 0 0 0-.416.422v4.151a.42.42 0 0 1-.416.422h-1.65a.416.416 0 0 1-.415-.422V9.031a2.39 2.39 0 0 1 2.385-2.392h8.603A2.396 2.396 0 0 1 140 9.024v10.073a.42.42 0 0 1-.416.423h-1.663zm-8.711-9.357v2.072c0 .23.186.423.416.423h7.464c.23 0 .415-.186.415-.423V10.17c0-.806-.652-1.458-1.451-1.458h-5.392c-.806 0-1.452.652-1.452 1.458" clip-rule="evenodd"/><path fill="#000" d="M111.987 6.633c.121 0 .236.051.313.147l7.342 8.756c.25.294.729.115.729-.275V7.055a.42.42 0 0 1 .416-.422h1.637c.231 0 .416.185.416.422v12.05a.42.42 0 0 1-.416.422h-2.033a.013.013 0 0 1-.013-.013c0-.006 0-.006-.007-.013l-7.47-8.692c-.249-.294-.729-.108-.729.275v8.027a.42.42 0 0 1-.416.422h-1.65a.417.417 0 0 1-.416-.422V7.055a.42.42 0 0 1 .416-.422z"/><path fill="url(#a)" d="M5.426 19.968c.205-.205.48-.32.767-.32h26.639c.486 0 .729.588.384.927l-5.264 5.264c-.205.205-.48.32-.768.32H.546a.542.542 0 0 1-.384-.928z"/><path fill="url(#b)" d="M5.426.32c.205-.205.48-.32.767-.32h26.639c.486 0 .729.588.384.927l-5.264 5.258c-.205.204-.48.32-.768.32H.546a.542.542 0 0 1-.384-.928z"/><path fill="url(#c)" d="M27.952 10.08a1.1 1.1 0 0 0-.768-.32H.546a.542.542 0 0 0-.384.927l5.264 5.258c.205.204.48.32.767.32h26.639a.543.543 0 0 0 .384-.928z"/><defs><linearGradient id="a" x1="28.278" x2="12.599" y1="1.09" y2="29.432" gradientUnits="userSpaceOnUse"><stop stop-color="#0EF2A9"/><stop offset=".554" stop-color="#708ED2"/><stop offset="1" stop-color="#D724FE"/></linearGradient><linearGradient id="b" x1="28.278" x2="12.599" y1="1.09" y2="29.432" gradientUnits="userSpaceOnUse"><stop stop-color="#0EF2A9"/><stop offset=".554" stop-color="#708ED2"/><stop offset="1" stop-color="#D724FE"/></linearGradient><linearGradient id="c" x1="28.278" x2="12.599" y1="1.09" y2="29.432" gradientUnits="userSpaceOnUse"><stop stop-color="#0EF2A9"/><stop offset=".554" stop-color="#708ED2"/><stop offset="1" stop-color="#D724FE"/></linearGradient></defs></svg>